<svg width="17" height="16" viewBox="0 0 17 16" fill="none" xmlns="http://www.w3.org/2000/svg">
<path d="M16.2917 7.99992C16.2917 12.3722 12.7473 15.9166 8.37504 15.9166C4.00277 15.9166 0.458374 12.3722 0.458374 7.99992C0.458374 3.62765 4.00277 0.083252 8.37504 0.083252C12.7473 0.083252 16.2917 3.62765 16.2917 7.99992ZM7.45933 12.1917L13.333 6.31807C13.5324 6.11863 13.5324 5.79522 13.333 5.59577L12.6107 4.87347C12.4112 4.67399 12.0878 4.67399 11.8883 4.87347L7.09816 9.66363L4.86173 7.42721C4.66228 7.22776 4.33888 7.22776 4.1394 7.42721L3.4171 8.14951C3.21765 8.34896 3.21765 8.67236 3.4171 8.87181L6.73699 12.1917C6.93647 12.3912 7.25984 12.3912 7.45933 12.1917Z" fill="#23BA7B"/>
</svg>
