<svg width="89" height="17" viewBox="0 0 89 17" fill="none" xmlns="http://www.w3.org/2000/svg">
<path d="M16.6932 4.66516H20.2864C22.9278 4.66516 24.4678 6.66757 24.4678 9.27709C24.4678 11.876 22.9278 13.8464 20.2864 13.8464H16.6932V4.66516ZM20.2757 12.6002C22.1258 12.6002 23.0775 11.1517 23.0775 9.27709C23.0775 7.41315 22.1258 5.91134 20.2757 5.91134H18.0728V12.5896H20.2757V12.6002Z" fill="black"/>
<path d="M25.8473 5.36817C25.8473 4.88887 26.2644 4.52673 26.7456 4.52673C27.2375 4.52673 27.6439 4.88887 27.6439 5.36817C27.6439 5.84747 27.2375 6.20961 26.7456 6.20961C26.2644 6.19896 25.8473 5.84747 25.8473 5.36817ZM26.0933 7.6262H27.4086V13.8571H26.0933V7.6262Z" fill="black"/>
<path d="M35.5574 7.62626V12.9199C35.5574 15.817 34.2206 16.9566 32.1139 16.9566C30.9376 16.9566 29.8361 16.3389 29.2479 15.2311L30.3601 14.6879C30.713 15.359 31.4295 15.7424 32.1139 15.7424C33.4293 15.7424 34.242 14.9968 34.242 13.0264V12.9412C33.8143 13.6228 32.916 13.985 32.0818 13.985C30.3815 13.985 28.9806 12.7068 28.9806 10.7257C28.9806 8.73397 30.3815 7.48779 32.0711 7.48779C32.9374 7.48779 33.8143 7.83928 34.242 8.5316V7.62626H35.5574ZM34.2313 10.7257C34.2313 9.4689 33.2047 8.73397 32.2316 8.73397C31.1622 8.73397 30.2853 9.54346 30.2853 10.7257C30.2853 11.8867 31.1515 12.7494 32.2316 12.7494C33.301 12.7494 34.2313 11.9826 34.2313 10.7257Z" fill="black"/>
<path d="M37.2684 5.36817C37.2684 4.88887 37.6855 4.52673 38.1667 4.52673C38.6586 4.52673 39.065 4.88887 39.065 5.36817C39.065 5.84747 38.6586 6.20961 38.1667 6.20961C37.6855 6.19896 37.2684 5.84747 37.2684 5.36817ZM37.5144 7.6262H38.8298V13.8571H37.5144V7.6262Z" fill="black"/>
<path d="M43.9628 8.72323H42.6261V13.8571H41.3107V8.72323H40.1879V7.62617H41.3107V5.29358H42.6261V7.62617H43.9628V8.72323Z" fill="black"/>
<path d="M51.2775 7.62626V13.8572H49.9621V12.9199C49.5451 13.6228 48.6468 13.985 47.8019 13.985C46.1016 13.985 44.7007 12.7068 44.7007 10.7257C44.7007 8.73397 46.1016 7.48779 47.7912 7.48779C48.6788 7.48779 49.5451 7.83928 49.9621 8.54225V7.62626H51.2775ZM49.9514 10.7257C49.9514 9.4689 48.9248 8.73397 47.9517 8.73397C46.8823 8.73397 46.0054 9.54346 46.0054 10.7257C46.0054 11.8867 46.8716 12.7494 47.9517 12.7494C49.0104 12.7494 49.9514 11.9826 49.9514 10.7257Z" fill="black"/>
<path d="M53.2346 4.2605H54.5392V13.8678H53.2239V4.2605H53.2346Z" fill="black"/>
<path d="M56.6031 9.21328C56.6031 6.61441 58.6778 4.50549 61.2871 4.50549C62.7415 4.50549 64.0141 5.14456 64.8375 6.15641L63.8216 6.9659C63.2334 6.23097 62.3244 5.78363 61.3085 5.78363C59.4371 5.78363 57.9827 7.31738 57.9827 9.21328C57.9827 11.0985 59.4157 12.6429 61.3085 12.6429C62.3244 12.6429 63.2334 12.1743 63.8216 11.4607L64.8375 12.2701C64.0248 13.282 62.7522 13.9211 61.2871 13.9211C58.6885 13.9211 56.6031 11.8228 56.6031 9.21328Z" fill="black"/>
<path d="M71.9918 7.56226V13.7932H70.6764V12.8452C70.3128 13.6014 69.3076 13.921 68.6553 13.921C67.0726 13.921 66.1208 12.8985 66.1422 11.1197V7.56226H67.4576V11.0345C67.4576 12.0464 68.0778 12.6322 68.8798 12.6322C69.6926 12.6322 70.6871 12.1742 70.6871 10.8961V7.56226H71.9918Z" fill="black"/>
<path d="M80.5362 10.6724C80.5362 12.6429 79.1139 13.9317 77.435 13.9317C76.5901 13.9317 75.6812 13.5695 75.2641 12.8666V13.8039H73.9487V4.18591H75.2641V8.47831C75.6812 7.77534 76.5474 7.42385 77.435 7.42385C79.1246 7.4345 80.5362 8.68068 80.5362 10.6724ZM79.2102 10.6618C79.2102 9.49016 78.3547 8.67003 77.2639 8.67003C76.3014 8.67003 75.2641 9.40495 75.2641 10.6618C75.2641 11.9186 76.2159 12.6855 77.2639 12.6855C78.3547 12.6855 79.2102 11.8228 79.2102 10.6618Z" fill="black"/>
<path d="M88.0114 11.205H83.028C83.1991 12.2168 83.9477 12.7068 84.9743 12.7068C85.7015 12.7068 86.3752 12.3979 86.7281 11.8227L87.7761 12.3446C87.2307 13.3884 86.0971 13.921 84.9101 13.921C83.1028 13.921 81.6805 12.6322 81.6805 10.6511C81.6805 8.67001 83.1242 7.42383 84.9101 7.42383C86.696 7.42383 88.0434 8.68066 88.0434 10.6405C88.0328 10.8215 88.0221 11.0026 88.0114 11.205ZM86.7174 10.1505C86.5998 9.18126 85.8726 8.64871 84.9101 8.64871C83.9477 8.64871 83.2205 9.12801 83.0387 10.1505H86.7174Z" fill="black"/>
<path d="M3.46485 3.45105H0V6.89136V10.3317V10.3423V13.7826H10.3838V10.3423V10.3317V6.89136H6.919V10.3317H3.46485V6.89136H6.919V3.45105H3.46485Z" fill="black"/>
<path d="M10.3838 0.00012207H6.91895V3.45108H10.3838V0.00012207Z" fill="black"/>
</svg>
